<svg width="159" height="168" viewBox="0 0 159 168" fill="none" xmlns="http://www.w3.org/2000/svg">
<ellipse cx="79.5" cy="98" rx="79.5" ry="70" fill="#3E3B45"/>
<path d="M47.1 46.5C51.6 45.7 56.65 45 62.25 44.4C67.95 43.7 73.45 43.35 78.75 43.35C87.25 43.35 94.2 44.25 99.6 46.05C105.1 47.85 109.4 50.2 112.5 53.1C115.6 55.9 117.7 59.1 118.8 62.7C120 66.2 120.6 69.7 120.6 73.2C120.6 79.5 119.15 85 116.25 89.7C113.45 94.3 109.45 97.95 104.25 100.65C107.35 102.15 109.9 103.9 111.9 105.9C114 107.8 115.65 110.15 116.85 112.95C118.05 115.75 118.85 119.1 119.25 123C119.75 126.8 120 131.25 120 136.35C120 140.45 119.85 145 119.55 150L98.7 151.8C99 148.5 99.25 145.35 99.45 142.35C99.65 139.35 99.75 136.5 99.75 133.8C99.75 129.4 99.4 125.55 98.7 122.25C98 118.95 96.75 116.2 94.95 114C93.15 111.7 90.7 110 87.6 108.9C84.6 107.8 80.7 107.25 75.9 107.25C74.8 107.25 73.5 107.3 72 107.4C70.5 107.4 68.95 107.5 67.35 107.7C67.35 116 67.35 123.5 67.35 130.2C67.45 136.9 67.6 143.5 67.8 150H46.65C46.85 145.2 47 141 47.1 137.4C47.3 133.7 47.45 129.9 47.55 126C47.65 122 47.7 117.55 47.7 112.65C47.8 107.75 47.85 101.65 47.85 94.35C47.85 85.95 47.8 77.9 47.7 70.2C47.6 62.5 47.4 54.6 47.1 46.5ZM80.7 56.7C78.7 56.7 76.6 56.9 74.4 57.3C72.2 57.6 69.95 58.05 67.65 58.65C67.45 62.85 67.35 67.6 67.35 72.9C67.35 78.1 67.35 84.4 67.35 91.8V93.75C70.15 94.35 73.4 94.65 77.1 94.65C84.6 94.65 90.4 93.05 94.5 89.85C98.7 86.55 100.8 81.75 100.8 75.45C100.8 69.65 99 65.1 95.4 61.8C91.9 58.4 87 56.7 80.7 56.7Z" fill="white"/>
<mask id="mask0" mask-type="alpha" maskUnits="userSpaceOnUse" x="46" y="43" width="75" height="109">
<path d="M47.1 46.5C51.6 45.7 56.65 45 62.25 44.4C67.95 43.7 73.45 43.35 78.75 43.35C87.25 43.35 94.2 44.25 99.6 46.05C105.1 47.85 109.4 50.2 112.5 53.1C115.6 55.9 117.7 59.1 118.8 62.7C120 66.2 120.6 69.7 120.6 73.2C120.6 79.5 119.15 85 116.25 89.7C113.45 94.3 109.45 97.95 104.25 100.65C107.35 102.15 109.9 103.9 111.9 105.9C114 107.8 115.65 110.15 116.85 112.95C118.05 115.75 118.85 119.1 119.25 123C119.75 126.8 120 131.25 120 136.35C120 140.45 119.85 145 119.55 150L98.7 151.8C99 148.5 99.25 145.35 99.45 142.35C99.65 139.35 99.75 136.5 99.75 133.8C99.75 129.4 99.4 125.55 98.7 122.25C98 118.95 96.75 116.2 94.95 114C93.15 111.7 90.7 110 87.6 108.9C84.6 107.8 80.7 107.25 75.9 107.25C74.8 107.25 73.5 107.3 72 107.4C70.5 107.4 68.95 107.5 67.35 107.7C67.35 116 67.35 123.5 67.35 130.2C67.45 136.9 67.6 143.5 67.8 150H46.65C46.85 145.2 47 141 47.1 137.4C47.3 133.7 47.45 129.9 47.55 126C47.65 122 47.7 117.55 47.7 112.65C47.8 107.75 47.85 101.65 47.85 94.35C47.85 85.95 47.8 77.9 47.7 70.2C47.6 62.5 47.4 54.6 47.1 46.5ZM80.7 56.7C78.7 56.7 76.6 56.9 74.4 57.3C72.2 57.6 69.95 58.05 67.65 58.65C67.45 62.85 67.35 67.6 67.35 72.9C67.35 78.1 67.35 84.4 67.35 91.8V93.75C70.15 94.35 73.4 94.65 77.1 94.65C84.6 94.65 90.4 93.05 94.5 89.85C98.7 86.55 100.8 81.75 100.8 75.45C100.8 69.65 99 65.1 95.4 61.8C91.9 58.4 87 56.7 80.7 56.7Z" fill="white"/>
</mask>
<g mask="url(#mask0)">
<path d="M81.5 247C112.667 201.167 141.8 110.2 67 57L-209 256L81.5 247Z" fill="url(#paint0_linear)"/>
</g>
<defs>
<linearGradient id="paint0_linear" x1="15" y1="48" x2="114" y2="221" gradientUnits="userSpaceOnUse">
<stop offset="0.0311855" stop-color="#F72A2A"/>
<stop offset="1" stop-color="#F5CACA" stop-opacity="0"/>
</linearGradient>
</defs>
</svg>
